<?xml version="1.0" encoding="UTF-8" standalone="no"?>
<!DOCTYPE svg PUBLIC "-//W3C//DTD SVG 1.1//EN"
 "http://www.w3.org/Graphics/SVG/1.1/DTD/svg11.dtd">
<!-- Generated by graphviz version 2.40.1 (20161225.0304)
 -->
<!-- Title: smsloop Pages: 1 -->
<svg width="333pt" height="802pt"
 viewBox="0.00 0.00 332.69 802.00" xmlns="http://www.w3.org/2000/svg" xmlns:xlink="http://www.w3.org/1999/xlink">
<g id="graph0" class="graph" transform="scale(1 1) rotate(0) translate(4 798)">
<title>smsloop</title>
<polygon fill="#ffffff" stroke="transparent" points="-4,4 -4,-798 328.6914,-798 328.6914,4 -4,4"/>
<!-- start -->
<g id="node1" class="node">
<title>start</title>
<path fill="none" stroke="#000000" d="M198.4435,-794C198.4435,-794 166.4435,-794 166.4435,-794 160.4435,-794 154.4435,-788 154.4435,-782 154.4435,-782 154.4435,-770 154.4435,-770 154.4435,-764 160.4435,-758 166.4435,-758 166.4435,-758 198.4435,-758 198.4435,-758 204.4435,-758 210.4435,-764 210.4435,-770 210.4435,-770 210.4435,-782 210.4435,-782 210.4435,-788 204.4435,-794 198.4435,-794"/>
<text text-anchor="middle" x="182.4435" y="-772.3" font-family="Times,serif" font-size="14.00" fill="#000000">Startup</text>
</g>
<!-- connected -->
<g id="node3" class="node">
<title>connected</title>
<polygon fill="none" stroke="#000000" points="182.4435,-721 76.5369,-703 182.4435,-685 288.35,-703 182.4435,-721"/>
<text text-anchor="middle" x="182.4435" y="-699.3" font-family="Times,serif" font-size="14.00" fill="#000000">Phone connected?</text>
</g>
<!-- start&#45;&gt;connected -->
<g id="edge1" class="edge">
<title>start&#45;&gt;connected</title>
<path fill="none" stroke="#000000" d="M182.4435,-757.9551C182.4435,-749.8828 182.4435,-740.1764 182.4435,-731.1817"/>
<polygon fill="#000000" stroke="#000000" points="185.9436,-731.0903 182.4435,-721.0904 178.9436,-731.0904 185.9436,-731.0903"/>
</g>
<!-- end -->
<g id="node2" class="node">
<title>end</title>
<path fill="none" stroke="#000000" d="M232.4435,-36C232.4435,-36 172.4435,-36 172.4435,-36 166.4435,-36 160.4435,-30 160.4435,-24 160.4435,-24 160.4435,-12 160.4435,-12 160.4435,-6 166.4435,0 172.4435,0 172.4435,0 232.4435,0 232.4435,0 238.4435,0 244.4435,-6 244.4435,-12 244.4435,-12 244.4435,-24 244.4435,-24 244.4435,-30 238.4435,-36 232.4435,-36"/>
<text text-anchor="middle" x="202.4435" y="-14.3" font-family="Times,serif" font-size="14.00" fill="#000000">Termination</text>
</g>
<!-- connect -->
<g id="node4" class="node">
<title>connect</title>
<ellipse fill="none" stroke="#000000" cx="73.4435" cy="-616" rx="73.387" ry="18"/>
<text text-anchor="middle" x="73.4435" y="-612.3" font-family="Times,serif" font-size="14.00" fill="#000000">Connect to phone</text>
</g>
<!-- connected&#45;&gt;connect -->
<g id="edge2" class="edge">
<title>connected&#45;&gt;connect</title>
<path fill="none" stroke="#000000" d="M163.4571,-687.8458C146.8056,-674.5551 122.32,-655.0115 103.0887,-639.6618"/>
<polygon fill="#000000" stroke="#000000" points="105.2057,-636.8733 95.2066,-633.3706 100.8389,-642.3443 105.2057,-636.8733"/>
<text text-anchor="middle" x="143.9435" y="-655.8" font-family="Times,serif" font-size="14.00" fill="#000000">No</text>
</g>
<!-- security -->
<g id="node5" class="node">
<title>security</title>
<ellipse fill="none" stroke="#000000" cx="107.4435" cy="-543" rx="94.7833" ry="18"/>
<text text-anchor="middle" x="107.4435" y="-539.3" font-family="Times,serif" font-size="14.00" fill="#000000">Check for security code</text>
</g>
<!-- connected&#45;&gt;security -->
<g id="edge3" class="edge">
<title>connected&#45;&gt;security</title>
<path fill="none" stroke="#000000" d="M180.3964,-684.9983C177.3654,-663.3258 170.3502,-626.3133 155.4435,-598 149.781,-587.2448 141.6244,-576.8288 133.6371,-568.0074"/>
<polygon fill="#000000" stroke="#000000" points="136.141,-565.5612 126.7286,-560.6973 131.0535,-570.3693 136.141,-565.5612"/>
<text text-anchor="middle" x="180.4435" y="-612.3" font-family="Times,serif" font-size="14.00" fill="#000000">Yes</text>
</g>
<!-- connect&#45;&gt;security -->
<g id="edge4" class="edge">
<title>connect&#45;&gt;security</title>
<path fill="none" stroke="#000000" d="M81.848,-597.9551C85.7302,-589.6196 90.4241,-579.5416 94.7265,-570.3042"/>
<polygon fill="#000000" stroke="#000000" points="97.9685,-571.6331 99.0178,-561.0904 91.623,-568.6776 97.9685,-571.6331"/>
</g>
<!-- receive -->
<g id="node6" class="node">
<title>receive</title>
<ellipse fill="none" stroke="#000000" cx="107.4435" cy="-470" rx="75.2868" ry="18"/>
<text text-anchor="middle" x="107.4435" y="-466.3" font-family="Times,serif" font-size="14.00" fill="#000000">Receive messages</text>
</g>
<!-- security&#45;&gt;receive -->
<g id="edge5" class="edge">
<title>security&#45;&gt;receive</title>
<path fill="none" stroke="#000000" d="M107.4435,-524.9551C107.4435,-516.8828 107.4435,-507.1764 107.4435,-498.1817"/>
<polygon fill="#000000" stroke="#000000" points="110.9436,-498.0903 107.4435,-488.0904 103.9436,-498.0904 110.9436,-498.0903"/>
</g>
<!-- reset -->
<g id="node7" class="node">
<title>reset</title>
<ellipse fill="none" stroke="#000000" cx="107.4435" cy="-397" rx="89.0842" ry="18"/>
<text text-anchor="middle" x="107.4435" y="-393.3" font-family="Times,serif" font-size="14.00" fill="#000000">Reset phone if needed</text>
</g>
<!-- receive&#45;&gt;reset -->
<g id="edge6" class="edge">
<title>receive&#45;&gt;reset</title>
<path fill="none" stroke="#000000" d="M107.4435,-451.9551C107.4435,-443.8828 107.4435,-434.1764 107.4435,-425.1817"/>
<polygon fill="#000000" stroke="#000000" points="110.9436,-425.0903 107.4435,-415.0904 103.9436,-425.0904 110.9436,-425.0903"/>
</g>
<!-- send -->
<g id="node8" class="node">
<title>send</title>
<ellipse fill="none" stroke="#000000" cx="118.4435" cy="-324" rx="64.189" ry="18"/>
<text text-anchor="middle" x="118.4435" y="-320.3" font-family="Times,serif" font-size="14.00" fill="#000000">Send messages</text>
</g>
<!-- reset&#45;&gt;send -->
<g id="edge7" class="edge">
<title>reset&#45;&gt;send</title>
<path fill="none" stroke="#000000" d="M110.1626,-378.9551C111.3789,-370.8828 112.8416,-361.1764 114.1969,-352.1817"/>
<polygon fill="#000000" stroke="#000000" points="117.6884,-352.5003 115.7175,-342.0904 110.7665,-351.4572 117.6884,-352.5003"/>
</g>
<!-- status -->
<g id="node9" class="node">
<title>status</title>
<ellipse fill="none" stroke="#000000" cx="124.4435" cy="-251" rx="79.0865" ry="18"/>
<text text-anchor="middle" x="124.4435" y="-247.3" font-family="Times,serif" font-size="14.00" fill="#000000">Check phone status</text>
</g>
<!-- send&#45;&gt;status -->
<g id="edge8" class="edge">
<title>send&#45;&gt;status</title>
<path fill="none" stroke="#000000" d="M119.9266,-305.9551C120.5901,-297.8828 121.3879,-288.1764 122.1272,-279.1817"/>
<polygon fill="#000000" stroke="#000000" points="125.6256,-279.3435 122.9566,-269.0904 118.6491,-278.77 125.6256,-279.3435"/>
</g>
<!-- sleep -->
<g id="node10" class="node">
<title>sleep</title>
<ellipse fill="none" stroke="#000000" cx="161.4435" cy="-178" rx="30.5947" ry="18"/>
<text text-anchor="middle" x="161.4435" y="-174.3" font-family="Times,serif" font-size="14.00" fill="#000000">Sleep</text>
</g>
<!-- status&#45;&gt;sleep -->
<g id="edge9" class="edge">
<title>status&#45;&gt;sleep</title>
<path fill="none" stroke="#000000" d="M133.5896,-232.9551C137.9551,-224.3419 143.2638,-213.8681 148.0709,-204.3837"/>
<polygon fill="#000000" stroke="#000000" points="151.2583,-205.8367 152.6574,-195.3347 145.0145,-202.672 151.2583,-205.8367"/>
</g>
<!-- shutdown -->
<g id="node11" class="node">
<title>shutdown</title>
<polygon fill="none" stroke="#000000" points="202.4435,-123 79.9471,-105 202.4435,-87 324.9398,-105 202.4435,-123"/>
<text text-anchor="middle" x="202.4435" y="-101.3" font-family="Times,serif" font-size="14.00" fill="#000000">Shutdown requested?</text>
</g>
<!-- sleep&#45;&gt;shutdown -->
<g id="edge10" class="edge">
<title>sleep&#45;&gt;shutdown</title>
<path fill="none" stroke="#000000" d="M171.1599,-160.7C176.2364,-151.6615 182.5461,-140.427 188.1665,-130.4201"/>
<polygon fill="#000000" stroke="#000000" points="191.2337,-132.1062 193.079,-121.6733 185.1304,-128.6783 191.2337,-132.1062"/>
</g>
<!-- shutdown&#45;&gt;end -->
<g id="edge12" class="edge">
<title>shutdown&#45;&gt;end</title>
<path fill="none" stroke="#000000" d="M202.4435,-86.9735C202.4435,-75.1918 202.4435,-59.5607 202.4435,-46.1581"/>
<polygon fill="#000000" stroke="#000000" points="205.9436,-46.0033 202.4435,-36.0034 198.9436,-46.0034 205.9436,-46.0033"/>
<text text-anchor="middle" x="213.4435" y="-57.8" font-family="Times,serif" font-size="14.00" fill="#000000">Yes</text>
</g>
<!-- shutdown&#45;&gt;connected -->
<g id="edge11" class="edge">
<title>shutdown&#45;&gt;connected</title>
<path fill="none" stroke="#000000" d="M213.6144,-121.6111C222.1438,-135.9169 232.4435,-157.4469 232.4435,-178 232.4435,-616 232.4435,-616 232.4435,-616 232.4435,-639.8843 218.1026,-663.1391 204.7815,-679.5882"/>
<polygon fill="#000000" stroke="#000000" points="201.8249,-677.6606 197.9897,-687.5369 207.1468,-682.2079 201.8249,-677.6606"/>
<text text-anchor="middle" x="240.9435" y="-393.3" font-family="Times,serif" font-size="14.00" fill="#000000">No</text>
</g>
</g>
</svg>
