<?xml version="1.0" encoding="UTF-8" standalone="no"?>
<!DOCTYPE svg PUBLIC "-//W3C//DTD SVG 1.1//EN"
 "http://www.w3.org/Graphics/SVG/1.1/DTD/svg11.dtd">
<!-- Generated by graphviz version 2.40.1 (20161225.0304)
 -->
<!-- Title: smsdinteractions Pages: 1 -->
<svg width="431pt" height="358pt"
 viewBox="0.00 0.00 431.00 357.61" xmlns="http://www.w3.org/2000/svg" xmlns:xlink="http://www.w3.org/1999/xlink">
<g id="graph0" class="graph" transform="scale(1 1) rotate(0) translate(4 353.6102)">
<title>smsdinteractions</title>
<polygon fill="#ffffff" stroke="transparent" points="-4,4 -4,-353.6102 427,-353.6102 427,4 -4,4"/>
<!-- gammu&#45;smsd&#45;inject -->
<g id="node1" class="node">
<title>gammu&#45;smsd&#45;inject</title>
<polygon fill="none" stroke="#000000" points="379,-349.6102 253,-349.6102 253,-313.6102 379,-313.6102 379,-349.6102"/>
<text text-anchor="middle" x="316" y="-327.9102" font-family="Times,serif" font-size="14.00" fill="#000000">gammu&#45;smsd&#45;inject</text>
</g>
<!-- Service\nstorage -->
<g id="node6" class="node">
<title>Service\nstorage</title>
<ellipse fill="none" stroke="#000000" cx="316" cy="-218.3051" rx="40.1285" ry="40.1285"/>
<ellipse fill="none" stroke="#000000" cx="316" cy="-218.3051" rx="44.111" ry="44.111"/>
<text text-anchor="middle" x="316" y="-222.1051" font-family="Times,serif" font-size="14.00" fill="#000000">Service</text>
<text text-anchor="middle" x="316" y="-207.1051" font-family="Times,serif" font-size="14.00" fill="#000000">storage</text>
</g>
<!-- gammu&#45;smsd&#45;inject&#45;&gt;Service\nstorage -->
<g id="edge9" class="edge">
<title>gammu&#45;smsd&#45;inject&#45;&gt;Service\nstorage</title>
<path fill="none" stroke="#000000" d="M316,-313.4058C316,-302.3255 316,-287.53 316,-272.9159"/>
<polygon fill="#000000" stroke="#000000" points="319.5001,-272.8753 316,-262.8753 312.5001,-272.8754 319.5001,-272.8753"/>
<text text-anchor="middle" x="331.5" y="-284.4102" font-family="Times,serif" font-size="14.00" fill="#000000">Inject</text>
</g>
<!-- gammu&#45;smsd -->
<g id="node2" class="node">
<title>gammu&#45;smsd</title>
<polygon fill="none" stroke="#000000" points="238,-123 146,-123 146,-87 238,-87 238,-123"/>
<text text-anchor="middle" x="192" y="-101.3" font-family="Times,serif" font-size="14.00" fill="#000000">gammu&#45;smsd</text>
</g>
<!-- Run on receive -->
<g id="node3" class="node">
<title>Run on receive</title>
<polygon fill="none" stroke="#000000" stroke-dasharray="1,5" points="370.5,-36 271.5,-36 271.5,0 370.5,0 370.5,-36"/>
<text text-anchor="middle" x="321" y="-14.3" font-family="Times,serif" font-size="14.00" fill="#000000">Run on receive</text>
</g>
<!-- gammu&#45;smsd&#45;&gt;Run on receive -->
<g id="edge5" class="edge">
<title>gammu&#45;smsd&#45;&gt;Run on receive</title>
<path fill="none" stroke="#000000" d="M213.7344,-86.9781C226.3408,-76.8404 242.7035,-64.2091 258,-54 264.5569,-49.6238 271.6727,-45.236 278.6823,-41.1037"/>
<polygon fill="#000000" stroke="#000000" points="280.553,-44.065 287.4543,-36.0263 277.0462,-38.0067 280.553,-44.065"/>
<text text-anchor="middle" x="280" y="-57.8" font-family="Times,serif" font-size="14.00" fill="#000000">Execute</text>
</g>
<!-- GSM modem -->
<g id="node4" class="node">
<title>GSM modem</title>
<polygon fill="none" stroke="#000000" stroke-dasharray="5,2" points="92,-36 0,-36 0,0 92,0 92,-36"/>
<text text-anchor="middle" x="46" y="-14.3" font-family="Times,serif" font-size="14.00" fill="#000000">GSM modem</text>
</g>
<!-- gammu&#45;smsd&#45;&gt;GSM modem -->
<g id="edge1" class="edge">
<title>gammu&#45;smsd&#45;&gt;GSM modem</title>
<path fill="none" stroke="#000000" d="M145.955,-100.4928C105.5837,-95.4767 51.309,-85.779 38,-69 32.8525,-62.5104 32.4644,-54.0593 34.0701,-45.909"/>
<polygon fill="#000000" stroke="#000000" points="37.4425,-46.8457 36.8318,-36.2685 30.7132,-44.918 37.4425,-46.8457"/>
<text text-anchor="middle" x="64" y="-57.8" font-family="Times,serif" font-size="14.00" fill="#000000">Outgoing</text>
</g>
<!-- gammu&#45;smsd&#45;monitor -->
<g id="node5" class="node">
<title>gammu&#45;smsd&#45;monitor</title>
<polygon fill="none" stroke="#000000" points="253,-36 113,-36 113,0 253,0 253,-36"/>
<text text-anchor="middle" x="183" y="-14.3" font-family="Times,serif" font-size="14.00" fill="#000000">gammu&#45;smsd&#45;monitor</text>
</g>
<!-- gammu&#45;smsd&#45;&gt;gammu&#45;smsd&#45;monitor -->
<g id="edge10" class="edge">
<title>gammu&#45;smsd&#45;&gt;gammu&#45;smsd&#45;monitor</title>
<path fill="none" stroke="#000000" d="M190.1352,-86.9735C188.9164,-75.1918 187.2994,-59.5607 185.9129,-46.1581"/>
<polygon fill="#000000" stroke="#000000" points="189.3729,-45.5901 184.8624,-36.0034 182.4101,-46.3105 189.3729,-45.5901"/>
<text text-anchor="middle" x="212" y="-57.8" font-family="Times,serif" font-size="14.00" fill="#000000">Monitor</text>
</g>
<!-- gammu&#45;smsd&#45;&gt;Service\nstorage -->
<g id="edge3" class="edge">
<title>gammu&#45;smsd&#45;&gt;Service\nstorage</title>
<path fill="none" stroke="#000000" d="M211.8604,-123.1475C228.9393,-138.7533 254.1169,-161.7594 275.4375,-181.2411"/>
<polygon fill="#000000" stroke="#000000" points="273.3526,-184.0771 283.0958,-188.2389 278.0745,-178.9095 273.3526,-184.0771"/>
<text text-anchor="middle" x="260.5" y="-144.8" font-family="Times,serif" font-size="14.00" fill="#000000">Save</text>
</g>
<!-- GSM modem&#45;&gt;gammu&#45;smsd -->
<g id="edge2" class="edge">
<title>GSM modem&#45;&gt;gammu&#45;smsd</title>
<path fill="none" stroke="#000000" d="M75.4596,-36.0795C91.5336,-45.8953 111.81,-58.1985 130,-69 136.9982,-73.1557 144.4665,-77.5372 151.7081,-81.758"/>
<polygon fill="#000000" stroke="#000000" points="150.3028,-84.9895 160.7072,-86.9894 153.8209,-78.9378 150.3028,-84.9895"/>
<text text-anchor="middle" x="156.5" y="-57.8" font-family="Times,serif" font-size="14.00" fill="#000000">Incoming</text>
</g>
<!-- Service\nstorage&#45;&gt;gammu&#45;smsd -->
<g id="edge4" class="edge">
<title>Service\nstorage&#45;&gt;gammu&#45;smsd</title>
<path fill="none" stroke="#000000" d="M273.2453,-205.6183C248.3247,-196.0018 218.4583,-180.2244 201,-156 196.2484,-149.4068 193.7302,-141.1113 192.4606,-133.1377"/>
<polygon fill="#000000" stroke="#000000" points="195.9245,-132.6045 191.4281,-123.0112 188.9606,-133.3146 195.9245,-132.6045"/>
<text text-anchor="middle" x="215" y="-144.8" font-family="Times,serif" font-size="14.00" fill="#000000">Read</text>
</g>
<!-- Service\nstorage&#45;&gt;Run on receive -->
<g id="edge6" class="edge">
<title>Service\nstorage&#45;&gt;Run on receive</title>
<path fill="none" stroke="#000000" d="M317.1097,-173.8509C318.0764,-135.1228 319.4498,-80.1021 320.2797,-46.8541"/>
<polygon fill="#000000" stroke="#000000" points="323.7883,-46.5527 320.539,-36.4684 316.7904,-46.3779 323.7883,-46.5527"/>
<text text-anchor="middle" x="334" y="-101.3" font-family="Times,serif" font-size="14.00" fill="#000000">Read</text>
</g>
<!-- Kalkun -->
<g id="node7" class="node">
<title>Kalkun</title>
<polygon fill="none" stroke="#000000" stroke-dasharray="1,5" points="423,-123 367,-123 367,-87 423,-87 423,-123"/>
<text text-anchor="middle" x="395" y="-101.3" font-family="Times,serif" font-size="14.00" fill="#000000">Kalkun</text>
</g>
<!-- Service\nstorage&#45;&gt;Kalkun -->
<g id="edge8" class="edge">
<title>Service\nstorage&#45;&gt;Kalkun</title>
<path fill="none" stroke="#000000" d="M327.6963,-175.5191C332.2087,-163.6139 338.2086,-151.1714 346,-141 349.66,-136.2221 354.1202,-131.7867 358.8427,-127.7783"/>
<polygon fill="#000000" stroke="#000000" points="361.2171,-130.3648 366.9429,-121.4504 356.9078,-124.8485 361.2171,-130.3648"/>
<text text-anchor="middle" x="360" y="-144.8" font-family="Times,serif" font-size="14.00" fill="#000000">Read</text>
</g>
<!-- Kalkun&#45;&gt;Service\nstorage -->
<g id="edge7" class="edge">
<title>Kalkun&#45;&gt;Service\nstorage</title>
<path fill="none" stroke="#000000" d="M391.0742,-123.3529C388.3848,-133.4779 384.1702,-145.989 378,-156 372.2377,-165.3493 364.8152,-174.366 357.1215,-182.4983"/>
<polygon fill="#000000" stroke="#000000" points="354.5475,-180.1238 350.0193,-189.7022 359.5324,-185.0382 354.5475,-180.1238"/>
<text text-anchor="middle" x="400.5" y="-144.8" font-family="Times,serif" font-size="14.00" fill="#000000">Inject</text>
</g>
</g>
</svg>
