<?xml version="1.0" encoding="UTF-8" standalone="no"?>
<!DOCTYPE svg PUBLIC "-//W3C//DTD SVG 1.1//EN"
 "http://www.w3.org/Graphics/SVG/1.1/DTD/svg11.dtd">
<!-- Generated by graphviz version 2.40.1 (20161225.0304)
 -->
<!-- Title: smsdreceiving Pages: 1 -->
<svg width="492pt" height="698pt"
 viewBox="0.00 0.00 492.34 698.00" xmlns="http://www.w3.org/2000/svg" xmlns:xlink="http://www.w3.org/1999/xlink">
<g id="graph0" class="graph" transform="scale(1 1) rotate(0) translate(4 694)">
<title>smsdreceiving</title>
<polygon fill="#ffffff" stroke="transparent" points="-4,4 -4,-694 488.342,-694 488.342,4 -4,4"/>
<!-- received message -->
<g id="node1" class="node">
<title>received message</title>
<polygon fill="none" stroke="#000000" points="146.842,-690 33.842,-690 33.842,-654 146.842,-654 146.842,-690"/>
<text text-anchor="middle" x="90.342" y="-668.3" font-family="Times,serif" font-size="14.00" fill="#000000">received message</text>
</g>
<!-- GSM_GetNextSMS -->
<g id="node6" class="node">
<title>GSM_GetNextSMS</title>
<ellipse fill="none" stroke="#000000" cx="90.342" cy="-599" rx="82.5854" ry="18"/>
<text text-anchor="middle" x="90.342" y="-595.3" font-family="Times,serif" font-size="14.00" fill="#000000">GSM_GetNextSMS</text>
</g>
<!-- received message&#45;&gt;GSM_GetNextSMS -->
<g id="edge1" class="edge">
<title>received message&#45;&gt;GSM_GetNextSMS</title>
<path fill="none" stroke="#000000" d="M90.342,-653.9551C90.342,-645.8828 90.342,-636.1764 90.342,-627.1817"/>
<polygon fill="#000000" stroke="#000000" points="93.8421,-627.0903 90.342,-617.0904 86.8421,-627.0904 93.8421,-627.0903"/>
</g>
<!-- ignored message -->
<g id="node2" class="node">
<title>ignored message</title>
<polygon fill="none" stroke="#000000" points="111.342,-457 3.342,-457 3.342,-421 111.342,-421 111.342,-457"/>
<text text-anchor="middle" x="57.342" y="-435.3" font-family="Times,serif" font-size="14.00" fill="#000000">ignored message</text>
</g>
<!-- failed message -->
<g id="node3" class="node">
<title>failed message</title>
<polygon fill="none" stroke="#000000" points="307.342,-36 209.342,-36 209.342,0 307.342,0 307.342,-36"/>
<text text-anchor="middle" x="258.342" y="-14.3" font-family="Times,serif" font-size="14.00" fill="#000000">failed message</text>
</g>
<!-- waiting message -->
<g id="node4" class="node">
<title>waiting message</title>
<polygon fill="none" stroke="#000000" points="211.842,-297 104.842,-297 104.842,-261 211.842,-261 211.842,-297"/>
<text text-anchor="middle" x="158.342" y="-275.3" font-family="Times,serif" font-size="14.00" fill="#000000">waiting message</text>
</g>
<!-- processed message -->
<g id="node5" class="node">
<title>processed message</title>
<polygon fill="none" stroke="#000000" points="445.342,-36 325.342,-36 325.342,0 445.342,0 445.342,-36"/>
<text text-anchor="middle" x="385.342" y="-14.3" font-family="Times,serif" font-size="14.00" fill="#000000">processed message</text>
</g>
<!-- SMSD_ValidMessage -->
<g id="node7" class="node">
<title>SMSD_ValidMessage</title>
<ellipse fill="none" stroke="#000000" cx="90.342" cy="-526" rx="90.1842" ry="18"/>
<text text-anchor="middle" x="90.342" y="-522.3" font-family="Times,serif" font-size="14.00" fill="#000000">SMSD_ValidMessage</text>
</g>
<!-- GSM_GetNextSMS&#45;&gt;SMSD_ValidMessage -->
<g id="edge2" class="edge">
<title>GSM_GetNextSMS&#45;&gt;SMSD_ValidMessage</title>
<path fill="none" stroke="#000000" d="M90.342,-580.9551C90.342,-572.8828 90.342,-563.1764 90.342,-554.1817"/>
<polygon fill="#000000" stroke="#000000" points="93.8421,-554.0903 90.342,-544.0904 86.8421,-554.0904 93.8421,-554.0903"/>
</g>
<!-- SMSD_ValidMessage&#45;&gt;ignored message -->
<g id="edge4" class="edge">
<title>SMSD_ValidMessage&#45;&gt;ignored message</title>
<path fill="none" stroke="#000000" stroke-dasharray="1,5" d="M83.5044,-507.9735C78.9469,-495.9585 72.871,-479.9401 67.7216,-466.3646"/>
<polygon fill="#000000" stroke="#000000" points="70.9899,-465.112 64.1708,-457.0034 64.445,-467.5947 70.9899,-465.112"/>
<text text-anchor="middle" x="102.342" y="-478.8" font-family="Times,serif" font-size="14.00" fill="#000000">Not valid</text>
</g>
<!-- GSM_LinkSMS -->
<g id="node8" class="node">
<title>GSM_LinkSMS</title>
<ellipse fill="none" stroke="#000000" cx="199.342" cy="-439" rx="69.5877" ry="18"/>
<text text-anchor="middle" x="199.342" y="-435.3" font-family="Times,serif" font-size="14.00" fill="#000000">GSM_LinkSMS</text>
</g>
<!-- SMSD_ValidMessage&#45;&gt;GSM_LinkSMS -->
<g id="edge3" class="edge">
<title>SMSD_ValidMessage&#45;&gt;GSM_LinkSMS</title>
<path fill="none" stroke="#000000" d="M112.3998,-508.3943C128.907,-495.2187 151.6574,-477.0601 169.7455,-462.6229"/>
<polygon fill="#000000" stroke="#000000" points="172.0567,-465.2564 177.689,-456.2827 167.6899,-459.7854 172.0567,-465.2564"/>
</g>
<!-- SMSD_CheckMultipart -->
<g id="node9" class="node">
<title>SMSD_CheckMultipart</title>
<ellipse fill="none" stroke="#000000" cx="199.342" cy="-366" rx="95.5831" ry="18"/>
<text text-anchor="middle" x="199.342" y="-362.3" font-family="Times,serif" font-size="14.00" fill="#000000">SMSD_CheckMultipart</text>
</g>
<!-- GSM_LinkSMS&#45;&gt;SMSD_CheckMultipart -->
<g id="edge5" class="edge">
<title>GSM_LinkSMS&#45;&gt;SMSD_CheckMultipart</title>
<path fill="none" stroke="#000000" d="M199.342,-420.9551C199.342,-412.8828 199.342,-403.1764 199.342,-394.1817"/>
<polygon fill="#000000" stroke="#000000" points="202.8421,-394.0903 199.342,-384.0904 195.8421,-394.0904 202.8421,-394.0903"/>
</g>
<!-- SMSD_CheckMultipart&#45;&gt;waiting message -->
<g id="edge7" class="edge">
<title>SMSD_CheckMultipart&#45;&gt;waiting message</title>
<path fill="none" stroke="#000000" stroke-dasharray="1,5" d="M190.8468,-347.9735C185.1845,-335.9585 177.6356,-319.9401 171.2379,-306.3646"/>
<polygon fill="#000000" stroke="#000000" points="174.2554,-304.5571 166.8263,-297.0034 167.9233,-307.5413 174.2554,-304.5571"/>
<text text-anchor="middle" x="215.342" y="-318.8" font-family="Times,serif" font-size="14.00" fill="#000000">Not all parts</text>
</g>
<!-- SaveInboxSMS -->
<g id="node10" class="node">
<title>SaveInboxSMS</title>
<ellipse fill="none" stroke="#000000" cx="296.342" cy="-279" rx="66.0889" ry="18"/>
<text text-anchor="middle" x="296.342" y="-275.3" font-family="Times,serif" font-size="14.00" fill="#000000">SaveInboxSMS</text>
</g>
<!-- SMSD_CheckMultipart&#45;&gt;SaveInboxSMS -->
<g id="edge6" class="edge">
<title>SMSD_CheckMultipart&#45;&gt;SaveInboxSMS</title>
<path fill="none" stroke="#000000" d="M228.4731,-348.742C236.8605,-343.2112 245.7797,-336.7561 253.342,-330 261.7195,-322.5156 269.922,-313.3809 276.8792,-304.921"/>
<polygon fill="#000000" stroke="#000000" points="279.626,-307.0903 283.1332,-297.0927 274.157,-302.7211 279.626,-307.0903"/>
</g>
<!-- SaveInboxSMS&#45;&gt;failed message -->
<g id="edge9" class="edge">
<title>SaveInboxSMS&#45;&gt;failed message</title>
<path fill="none" stroke="#000000" stroke-dasharray="1,5" d="M290.4904,-261.0362C286.213,-247.2242 280.6098,-227.5911 277.342,-210 266.6513,-152.45 261.7025,-84.0037 259.6381,-46.3535"/>
<polygon fill="#000000" stroke="#000000" points="263.122,-45.9494 259.1084,-36.1442 256.1314,-46.3122 263.122,-45.9494"/>
<text text-anchor="middle" x="283.842" y="-144.8" font-family="Times,serif" font-size="14.00" fill="#000000">Error</text>
</g>
<!-- SMSD_RunOnReceive -->
<g id="node11" class="node">
<title>SMSD_RunOnReceive</title>
<ellipse fill="none" stroke="#000000" cx="379.342" cy="-192" rx="92.8835" ry="18"/>
<text text-anchor="middle" x="379.342" y="-188.3" font-family="Times,serif" font-size="14.00" fill="#000000">SMSD_RunOnReceive</text>
</g>
<!-- SaveInboxSMS&#45;&gt;SMSD_RunOnReceive -->
<g id="edge8" class="edge">
<title>SaveInboxSMS&#45;&gt;SMSD_RunOnReceive</title>
<path fill="none" stroke="#000000" d="M313.1383,-261.3943C325.2084,-248.7424 341.6622,-231.4957 355.1466,-217.3614"/>
<polygon fill="#000000" stroke="#000000" points="357.9154,-219.5296 362.2858,-209.8782 352.8506,-214.6977 357.9154,-219.5296"/>
<text text-anchor="middle" x="413.842" y="-231.8" font-family="Times,serif" font-size="14.00" fill="#000000">Locations are passed here</text>
</g>
<!-- GSM_DeleteSMS -->
<g id="node12" class="node">
<title>GSM_DeleteSMS</title>
<ellipse fill="none" stroke="#000000" cx="379.342" cy="-105" rx="75.2868" ry="18"/>
<text text-anchor="middle" x="379.342" y="-101.3" font-family="Times,serif" font-size="14.00" fill="#000000">GSM_DeleteSMS</text>
</g>
<!-- SMSD_RunOnReceive&#45;&gt;GSM_DeleteSMS -->
<g id="edge10" class="edge">
<title>SMSD_RunOnReceive&#45;&gt;GSM_DeleteSMS</title>
<path fill="none" stroke="#000000" d="M379.342,-173.9735C379.342,-162.1918 379.342,-146.5607 379.342,-133.1581"/>
<polygon fill="#000000" stroke="#000000" points="382.8421,-133.0033 379.342,-123.0034 375.8421,-133.0034 382.8421,-133.0033"/>
</g>
<!-- GSM_DeleteSMS&#45;&gt;failed message -->
<g id="edge12" class="edge">
<title>GSM_DeleteSMS&#45;&gt;failed message</title>
<path fill="none" stroke="#000000" stroke-dasharray="1,5" d="M355.4363,-87.8116C337.2365,-74.7258 311.9597,-56.5516 291.759,-42.0271"/>
<polygon fill="#000000" stroke="#000000" points="293.6101,-39.0473 283.4477,-36.0512 289.5236,-44.7307 293.6101,-39.0473"/>
<text text-anchor="middle" x="340.842" y="-57.8" font-family="Times,serif" font-size="14.00" fill="#000000">Error</text>
</g>
<!-- GSM_DeleteSMS&#45;&gt;processed message -->
<g id="edge11" class="edge">
<title>GSM_DeleteSMS&#45;&gt;processed message</title>
<path fill="none" stroke="#000000" d="M380.5852,-86.9735C381.3977,-75.1918 382.4757,-59.5607 383.4,-46.1581"/>
<polygon fill="#000000" stroke="#000000" points="386.904,-46.2205 384.1004,-36.0034 379.9206,-45.7388 386.904,-46.2205"/>
</g>
</g>
</svg>
