<?xml version="1.0" encoding="UTF-8" standalone="no"?>
<!DOCTYPE svg PUBLIC "-//W3C//DTD SVG 1.1//EN"
 "http://www.w3.org/Graphics/SVG/1.1/DTD/svg11.dtd">
<!-- Generated by graphviz version 2.40.1 (20161225.0304)
 -->
<!-- Title: statemachine Pages: 1 -->
<svg width="464pt" height="802pt"
 viewBox="0.00 0.00 463.68 802.00" xmlns="http://www.w3.org/2000/svg" xmlns:xlink="http://www.w3.org/1999/xlink">
<g id="graph0" class="graph" transform="scale(1 1) rotate(0) translate(4 798)">
<title>statemachine</title>
<polygon fill="#ffffff" stroke="transparent" points="-4,4 -4,-798 459.6759,-798 459.6759,4 -4,4"/>
<!-- GSM_GetModel -->
<g id="node1" class="node">
<title>GSM_GetModel</title>
<ellipse fill="none" stroke="#000000" cx="332.9383" cy="-776" rx="70.6878" ry="18"/>
<text text-anchor="middle" x="332.9383" y="-772.3" font-family="Times,serif" font-size="14.00" fill="#000000">GSM_GetModel</text>
</g>
<!-- Phone.Functions.GetModel -->
<g id="node2" class="node">
<title>Phone.Functions.GetModel</title>
<ellipse fill="none" stroke="#000000" cx="332.9383" cy="-703" rx="108.5808" ry="18"/>
<text text-anchor="middle" x="332.9383" y="-699.3" font-family="Times,serif" font-size="14.00" fill="#000000">Phone.Functions.GetModel</text>
</g>
<!-- GSM_GetModel&#45;&gt;Phone.Functions.GetModel -->
<g id="edge1" class="edge">
<title>GSM_GetModel&#45;&gt;Phone.Functions.GetModel</title>
<path fill="none" stroke="#000000" d="M327.0226,-757.9551C326.2241,-749.8828 325.9988,-740.1764 326.3466,-731.1817"/>
<polygon fill="#000000" stroke="#000000" points="329.8463,-731.3007 327.0181,-721.0904 322.8617,-730.8359 329.8463,-731.3007"/>
</g>
<!-- Phone.Functions.GetModel&#45;&gt;GSM_GetModel -->
<g id="edge15" class="edge">
<title>Phone.Functions.GetModel&#45;&gt;GSM_GetModel</title>
<path fill="none" stroke="#000000" d="M338.8585,-721.0904C339.6548,-729.1687 339.878,-738.8769 339.5281,-747.8688"/>
<polygon fill="#000000" stroke="#000000" points="336.0287,-747.7439 338.854,-757.9551 343.0131,-748.2107 336.0287,-747.7439"/>
</g>
<!-- GSM_WaitFor -->
<g id="node3" class="node">
<title>GSM_WaitFor</title>
<ellipse fill="none" stroke="#000000" cx="286.9383" cy="-630" rx="64.189" ry="18"/>
<text text-anchor="middle" x="286.9383" y="-626.3" font-family="Times,serif" font-size="14.00" fill="#000000">GSM_WaitFor</text>
</g>
<!-- Phone.Functions.GetModel&#45;&gt;GSM_WaitFor -->
<g id="edge2" class="edge">
<title>Phone.Functions.GetModel&#45;&gt;GSM_WaitFor</title>
<path fill="none" stroke="#000000" d="M321.5675,-684.9551C316.1641,-676.3801 309.5987,-665.9611 303.6433,-656.5102"/>
<polygon fill="#000000" stroke="#000000" points="306.4707,-654.4318 298.1783,-647.8374 300.5484,-658.1637 306.4707,-654.4318"/>
</g>
<!-- Protocol.Functions.WriteMessage -->
<g id="node4" class="node">
<title>Protocol.Functions.WriteMessage</title>
<ellipse fill="none" stroke="#000000" cx="131.9383" cy="-557" rx="131.8766" ry="18"/>
<text text-anchor="middle" x="131.9383" y="-553.3" font-family="Times,serif" font-size="14.00" fill="#000000">Protocol.Functions.WriteMessage</text>
</g>
<!-- GSM_WaitFor&#45;&gt;Protocol.Functions.WriteMessage -->
<g id="edge3" class="edge">
<title>GSM_WaitFor&#45;&gt;Protocol.Functions.WriteMessage</title>
<path fill="none" stroke="#000000" d="M254.0668,-614.5186C231.9245,-604.0903 202.4094,-590.1896 177.9415,-578.666"/>
<polygon fill="#000000" stroke="#000000" points="179.3752,-575.4725 168.837,-574.3781 176.3926,-581.8053 179.3752,-575.4725"/>
</g>
<!-- GSM_WaitForOnce -->
<g id="node5" class="node">
<title>GSM_WaitForOnce</title>
<ellipse fill="none" stroke="#000000" cx="193.9383" cy="-484" rx="83.3857" ry="18"/>
<text text-anchor="middle" x="193.9383" y="-480.3" font-family="Times,serif" font-size="14.00" fill="#000000">GSM_WaitForOnce</text>
</g>
<!-- Protocol.Functions.WriteMessage&#45;&gt;GSM_WaitForOnce -->
<g id="edge4" class="edge">
<title>Protocol.Functions.WriteMessage&#45;&gt;GSM_WaitForOnce</title>
<path fill="none" stroke="#000000" d="M147.2641,-538.9551C154.7722,-530.1149 163.9449,-519.3149 172.1651,-509.6361"/>
<polygon fill="#000000" stroke="#000000" points="174.983,-511.7251 178.7887,-501.8374 169.6476,-507.1936 174.983,-511.7251"/>
</g>
<!-- GSM_WaitForOnce&#45;&gt;GSM_WaitFor -->
<g id="edge5" class="edge">
<title>GSM_WaitForOnce&#45;&gt;GSM_WaitFor</title>
<path fill="none" stroke="#000000" d="M229.3662,-500.3626C245.2008,-509.4952 262.5913,-522.4093 272.9383,-539 284.5888,-557.6809 287.7554,-582.602 288.1947,-601.6411"/>
<polygon fill="#000000" stroke="#000000" points="284.6947,-601.8052 288.1884,-611.8074 291.6947,-601.8096 284.6947,-601.8052"/>
<text text-anchor="middle" x="305.4383" y="-553.3" font-family="Times,serif" font-size="14.00" fill="#000000">Retries</text>
</g>
<!-- GSM_ReadDevice -->
<g id="node6" class="node">
<title>GSM_ReadDevice</title>
<ellipse fill="none" stroke="#000000" cx="201.9383" cy="-397" rx="77.1866" ry="18"/>
<text text-anchor="middle" x="201.9383" y="-393.3" font-family="Times,serif" font-size="14.00" fill="#000000">GSM_ReadDevice</text>
</g>
<!-- GSM_WaitForOnce&#45;&gt;GSM_ReadDevice -->
<g id="edge6" class="edge">
<title>GSM_WaitForOnce&#45;&gt;GSM_ReadDevice</title>
<path fill="none" stroke="#000000" d="M191.7078,-465.9886C190.8772,-456.1927 190.4543,-443.8869 191.9383,-433 192.3035,-430.3207 192.815,-427.5593 193.4153,-424.8137"/>
<polygon fill="#000000" stroke="#000000" points="196.8096,-425.6671 195.8769,-415.1134 190.0247,-423.9453 196.8096,-425.6671"/>
</g>
<!-- GSM_ReadDevice&#45;&gt;GSM_WaitForOnce -->
<g id="edge7" class="edge">
<title>GSM_ReadDevice&#45;&gt;GSM_WaitForOnce</title>
<path fill="none" stroke="#000000" d="M200.2828,-415.0034C199.1999,-426.7801 197.7626,-442.4102 196.53,-455.8156"/>
<polygon fill="#000000" stroke="#000000" points="193.0264,-455.695 195.5959,-465.9735 199.997,-456.3361 193.0264,-455.695"/>
<text text-anchor="middle" x="271.4383" y="-436.8" font-family="Times,serif" font-size="14.00" fill="#000000">Wair for complete request</text>
</g>
<!-- Device.Functions.ReadDevice -->
<g id="node7" class="node">
<title>Device.Functions.ReadDevice</title>
<ellipse fill="none" stroke="#000000" cx="215.9383" cy="-310" rx="118.0794" ry="18"/>
<text text-anchor="middle" x="215.9383" y="-306.3" font-family="Times,serif" font-size="14.00" fill="#000000">Device.Functions.ReadDevice</text>
</g>
<!-- GSM_ReadDevice&#45;&gt;Device.Functions.ReadDevice -->
<g id="edge8" class="edge">
<title>GSM_ReadDevice&#45;&gt;Device.Functions.ReadDevice</title>
<path fill="none" stroke="#000000" d="M204.8391,-378.9735C206.735,-367.1918 209.2504,-351.5607 211.4071,-338.1581"/>
<polygon fill="#000000" stroke="#000000" points="214.9079,-338.4324 213.0412,-328.0034 207.9968,-337.3203 214.9079,-338.4324"/>
</g>
<!-- Device.Functions.ReadDevice&#45;&gt;GSM_ReadDevice -->
<g id="edge9" class="edge">
<title>Device.Functions.ReadDevice&#45;&gt;GSM_ReadDevice</title>
<path fill="none" stroke="#000000" d="M215.3705,-328.0445C214.8497,-337.8501 213.8515,-350.1546 211.9383,-361 211.4685,-363.663 210.8866,-366.4133 210.2414,-369.1519"/>
<polygon fill="#000000" stroke="#000000" points="206.8511,-368.2827 207.7156,-378.8422 213.6248,-370.0484 206.8511,-368.2827"/>
<text text-anchor="middle" x="250.4383" y="-349.8" font-family="Times,serif" font-size="14.00" fill="#000000">Wait for data</text>
</g>
<!-- Protocol.Functions.StateMachine -->
<g id="node8" class="node">
<title>Protocol.Functions.StateMachine</title>
<ellipse fill="none" stroke="#000000" cx="215.9383" cy="-237" rx="128.8774" ry="18"/>
<text text-anchor="middle" x="215.9383" y="-233.3" font-family="Times,serif" font-size="14.00" fill="#000000">Protocol.Functions.StateMachine</text>
</g>
<!-- Device.Functions.ReadDevice&#45;&gt;Protocol.Functions.StateMachine -->
<g id="edge10" class="edge">
<title>Device.Functions.ReadDevice&#45;&gt;Protocol.Functions.StateMachine</title>
<path fill="none" stroke="#000000" d="M215.9383,-291.9551C215.9383,-283.8828 215.9383,-274.1764 215.9383,-265.1817"/>
<polygon fill="#000000" stroke="#000000" points="219.4384,-265.0903 215.9383,-255.0904 212.4384,-265.0904 219.4384,-265.0903"/>
</g>
<!-- Phone.Functions.DispatchMessage -->
<g id="node9" class="node">
<title>Phone.Functions.DispatchMessage</title>
<ellipse fill="none" stroke="#000000" cx="215.9383" cy="-164" rx="134.5761" ry="18"/>
<text text-anchor="middle" x="215.9383" y="-160.3" font-family="Times,serif" font-size="14.00" fill="#000000">Phone.Functions.DispatchMessage</text>
</g>
<!-- Protocol.Functions.StateMachine&#45;&gt;Phone.Functions.DispatchMessage -->
<g id="edge11" class="edge">
<title>Protocol.Functions.StateMachine&#45;&gt;Phone.Functions.DispatchMessage</title>
<path fill="none" stroke="#000000" d="M215.9383,-218.9551C215.9383,-210.8828 215.9383,-201.1764 215.9383,-192.1817"/>
<polygon fill="#000000" stroke="#000000" points="219.4384,-192.0903 215.9383,-182.0904 212.4384,-192.0904 219.4384,-192.0903"/>
</g>
<!-- GSM_DispatchMessage -->
<g id="node10" class="node">
<title>GSM_DispatchMessage</title>
<ellipse fill="none" stroke="#000000" cx="244.9383" cy="-91" rx="96.6831" ry="18"/>
<text text-anchor="middle" x="244.9383" y="-87.3" font-family="Times,serif" font-size="14.00" fill="#000000">GSM_DispatchMessage</text>
</g>
<!-- Phone.Functions.DispatchMessage&#45;&gt;GSM_DispatchMessage -->
<g id="edge12" class="edge">
<title>Phone.Functions.DispatchMessage&#45;&gt;GSM_DispatchMessage</title>
<path fill="none" stroke="#000000" d="M223.1068,-145.9551C226.3833,-137.7074 230.3376,-127.7536 233.9754,-118.5962"/>
<polygon fill="#000000" stroke="#000000" points="237.3124,-119.6761 237.7517,-109.0904 230.807,-117.0917 237.3124,-119.6761"/>
</g>
<!-- Phone.Functions.ReplyFunctions[]() -->
<g id="node11" class="node">
<title>Phone.Functions.ReplyFunctions[]()</title>
<ellipse fill="none" stroke="#000000" cx="315.9383" cy="-18" rx="139.9756" ry="18"/>
<text text-anchor="middle" x="315.9383" y="-14.3" font-family="Times,serif" font-size="14.00" fill="#000000">Phone.Functions.ReplyFunctions[]()</text>
</g>
<!-- GSM_DispatchMessage&#45;&gt;Phone.Functions.ReplyFunctions[]() -->
<g id="edge13" class="edge">
<title>GSM_DispatchMessage&#45;&gt;Phone.Functions.ReplyFunctions[]()</title>
<path fill="none" stroke="#000000" d="M262.4889,-72.9551C271.1933,-64.0054 281.8515,-53.047 291.3539,-43.2769"/>
<polygon fill="#000000" stroke="#000000" points="293.8804,-45.6992 298.3436,-36.0904 288.8623,-40.8187 293.8804,-45.6992"/>
</g>
<!-- Phone.Functions.ReplyFunctions[]()&#45;&gt;Phone.Functions.GetModel -->
<g id="edge14" class="edge">
<title>Phone.Functions.ReplyFunctions[]()&#45;&gt;Phone.Functions.GetModel</title>
<path fill="none" stroke="#000000" d="M344.1215,-35.7896C360.8956,-48.7713 378.9383,-68.0653 378.9383,-91 378.9383,-630 378.9383,-630 378.9383,-630 378.9383,-647.6155 369.2322,-664.4508 358.7369,-677.5058"/>
<polygon fill="#000000" stroke="#000000" points="356.0538,-675.2578 352.1799,-685.119 361.3578,-679.826 356.0538,-675.2578"/>
</g>
</g>
</svg>
